# xmcd
#
# Track frame offsets:
#	150
#	17842
#	38412
#	55455
#	68310
#	92552
#	116007
#	132885
#	152235
#	173735
#	190132
#
# Disc length: 2910 seconds
#
# Revision: 3
# Processed by: cddbd v1.5.2PL0 Copyright (c) Steve Scherf et al.
# Submitted via: EasyCDDAExtractor 15.2.5.1
#
DISCID=850b5c0b
DTITLE=Various Artist - Rhythm Country and Blues
DYEAR=1994
DGENRE=Country
TTITLE0=Vince Gill and Gladys Knight - Ain't Nothin' Like The Real Thing
TTITLE1=Al Green and Lyle Lovett - Funny How Time Slips Away
TTITLE2=Aaron Neville and Trisha Yearwood  - I Fall To Pieces
TTITLE3=Little Richard and Tanya Tucker - Somethin' Else
TTITLE4=Patti Labelle and Travis Tritt - When Something Is Wrong With My Baby
TTITLE5=Sam Moore and Conway Twitty - Rainy Night In Georgia
TTITLE6=Clint Black and The Pointer Sisters - Chain Of Fools
TTITLE7=Natalie Cole and Reba McEntire - Since I Fell for You
TTITLE8=Chet Atkins and Allen Toussaint - Southern Nights
TTITLE9=The Staple Singers and Marty Stuart - The Weight
TTITLE10=George Jones and BB King - Patches
EXTD=
EXTT0=
EXTT1=
EXTT2=
EXTT3=
EXTT4=
EXTT5=
EXTT6=
EXTT7=
EXTT8=
EXTT9=
EXTT10=
PLAYORDER=
